<svg width="489" height="260" viewBox="0 0 489 260" fill="none" xmlns="http://www.w3.org/2000/svg">
<path d="M141.575 44.7993C141.194 44.8207 140.898 45.0851 140.915 45.3909C140.932 45.6967 141.255 45.9277 141.636 45.9069C142.018 45.8862 142.313 45.6212 142.296 45.3154C142.28 45.0095 141.957 44.7786 141.575 44.7993Z" fill="white" fill-opacity="0.9"/>
<path d="M132.86 47.8711C132.669 47.8815 132.521 48.0137 132.53 48.1666C132.538 48.3195 132.699 48.4347 132.89 48.4243C133.081 48.414 133.229 48.2818 133.22 48.1289C133.212 47.9759 133.051 47.8602 132.86 47.8711Z" fill="white" fill-opacity="0.9"/>
<path d="M175.182 33.1055C174.755 33.1287 174.424 33.4254 174.443 33.7678C174.462 34.1108 174.823 34.3691 175.25 34.346C175.677 34.3222 176.008 34.0255 175.989 33.6831C175.97 33.3407 175.609 33.0824 175.182 33.1055Z" fill="white" fill-opacity="0.9"/>
<path d="M164.654 33.6831C164.227 33.7062 163.896 34.0029 163.915 34.3453C163.933 34.6877 164.295 34.9467 164.722 34.9229C165.149 34.8997 165.48 34.603 165.461 34.2606C165.442 33.9183 165.081 33.6593 164.654 33.6831Z" fill="white" fill-opacity="0.9"/>
<path d="M178.561 51.0343C178.553 50.896 178.692 50.7717 178.865 50.762C179.037 50.7529 179.189 50.8613 179.196 50.9996C179.204 51.1379 179.065 51.2622 178.893 51.2719C178.713 51.2817 178.568 51.1726 178.561 51.0343Z" fill="white" fill-opacity="0.9"/>
<path d="M207.002 44.6604C206.977 44.1895 207.432 43.7813 208.019 43.7496C208.606 43.7173 209.103 44.0731 209.129 44.5434C209.155 45.0144 208.699 45.4226 208.112 45.4543C207.526 45.4866 207.029 45.1308 207.002 44.6604Z" fill="white" fill-opacity="0.9"/>
<path d="M195.553 54.2006C194.936 54.2347 194.457 54.6636 194.484 55.1589C194.512 55.6542 195.034 56.0283 195.652 55.9948C196.27 55.9607 196.748 55.5317 196.721 55.0364C196.694 54.5411 196.171 54.1671 195.553 54.2006Z" fill="white" fill-opacity="0.9"/>
<path d="M339.79 21.9241C339.409 21.9448 339.114 22.2098 339.131 22.5157C339.147 22.8215 339.47 23.0524 339.851 23.0317C340.233 23.0104 340.528 22.746 340.511 22.4401C340.495 22.1343 340.172 21.9034 339.79 21.9241Z" fill="white" fill-opacity="0.9"/>
<path d="M331.068 24.9904C330.877 25.0008 330.729 25.133 330.738 25.2859C330.746 25.4388 330.908 25.5546 331.098 25.5442C331.289 25.5333 331.436 25.4011 331.428 25.2482C331.42 25.0952 331.259 24.9801 331.068 24.9904Z" fill="white" fill-opacity="0.9"/>
<path d="M373.39 10.2248C372.963 10.2486 372.632 10.5453 372.651 10.8877C372.669 11.2301 373.031 11.4884 373.458 11.4652C373.885 11.4415 374.216 11.1454 374.197 10.8024C374.179 10.46 373.817 10.2017 373.39 10.2248Z" fill="white" fill-opacity="0.9"/>
<path d="M362.862 10.8024C362.435 10.8255 362.104 11.1222 362.123 11.4646C362.142 11.807 362.503 12.0659 362.93 12.0422C363.357 12.019 363.688 11.7224 363.669 11.38C363.65 11.0376 363.289 10.7786 362.862 10.8024Z" fill="white" fill-opacity="0.9"/>
<path d="M377.072 27.8819C376.897 27.8916 376.761 28.0129 376.769 28.1536C376.777 28.2943 376.925 28.401 377.1 28.3912C377.276 28.3815 377.412 28.2596 377.404 28.1189C377.397 27.9781 377.248 27.8721 377.072 27.8819Z" fill="white" fill-opacity="0.9"/>
<path d="M393.762 31.3204C393.144 31.3539 392.665 31.7829 392.693 32.2782C392.72 32.7735 393.242 33.1476 393.86 33.114C394.478 33.0799 394.957 32.651 394.929 32.1557C394.902 31.6604 394.38 31.2863 393.762 31.3204Z" fill="white" fill-opacity="0.9"/>
<path d="M216.323 62.8463C216.014 62.8634 215.775 63.0778 215.788 63.3252C215.802 63.5731 216.064 63.7602 216.373 63.7431C216.681 63.7261 216.92 63.5116 216.907 63.2643C216.893 63.0163 216.632 62.8292 216.323 62.8463Z" fill="white" fill-opacity="0.9"/>
<path d="M223.558 51.2049C223.295 51.2189 223.091 51.4017 223.102 51.6125C223.114 51.8239 223.337 51.9829 223.599 51.9689C223.863 51.9543 224.067 51.7715 224.055 51.5607C224.043 51.3493 223.821 51.1903 223.558 51.2049Z" fill="white" fill-opacity="0.9"/>
<path d="M209.947 31.8213C209.734 31.8328 209.569 31.9809 209.578 32.1521C209.587 32.3233 209.768 32.453 209.982 32.4409C210.195 32.4293 210.361 32.2812 210.351 32.11C210.342 31.9388 210.161 31.8091 209.947 31.8213Z" fill="white" fill-opacity="0.9"/>
<path d="M266.444 58.843C266.434 58.6712 266.599 58.5231 266.813 58.5116C267.027 58.5 267.207 58.6291 267.217 58.8003C267.226 58.9721 267.061 59.1202 266.847 59.1318C266.633 59.1379 266.453 59.0087 266.444 58.843Z" fill="white" fill-opacity="0.9"/>
<path d="M242.631 35.9982C242.368 36.0128 242.164 36.1956 242.176 36.4064C242.187 36.6172 242.41 36.7768 242.673 36.7622C242.936 36.7476 243.14 36.5654 243.129 36.354C243.117 36.1432 242.894 35.9836 242.631 35.9982Z" fill="white" fill-opacity="0.9"/>
<path d="M291.333 65.8523C290.868 65.8773 290.508 66.2008 290.528 66.5737C290.548 66.9465 290.942 67.2286 291.407 67.203C291.872 67.1774 292.233 66.8545 292.212 66.4811C292.192 66.1082 291.799 65.8267 291.333 65.8523Z" fill="white" fill-opacity="0.9"/>
<path d="M307.278 57.2309C307.259 56.8879 307.596 56.5863 308.024 56.5626C308.452 56.5394 308.82 56.802 308.838 57.1456C308.857 57.4886 308.52 57.7902 308.093 57.814C307.664 57.8371 307.297 57.5745 307.278 57.2309Z" fill="white" fill-opacity="0.9"/>
<path d="M166.337 85.7173C165.693 85.7526 165.194 86.2004 165.222 86.717C165.25 87.2337 165.796 87.6242 166.44 87.5888C167.084 87.5535 167.583 87.1057 167.555 86.5891C167.527 86.0724 166.981 85.6819 166.337 85.7173Z" fill="white" fill-opacity="0.9"/>
<path d="M147.542 89.4525C147.351 89.4629 147.203 89.5951 147.211 89.748C147.22 89.9009 147.381 90.0167 147.572 90.0063C147.763 89.9954 147.91 89.8632 147.902 89.7102C147.894 89.5573 147.732 89.4422 147.542 89.4525Z" fill="white" fill-opacity="0.9"/>
<path d="M211.516 92.7467C211.371 92.7546 211.259 92.8552 211.265 92.9715C211.272 93.0879 211.394 93.1756 211.539 93.1677C211.684 93.1598 211.797 93.0586 211.79 92.9429C211.784 92.8265 211.661 92.7388 211.516 92.7467Z" fill="white" fill-opacity="0.9"/>
<path d="M200.857 98.8842C200.476 98.9055 200.18 99.17 200.197 99.4758C200.214 99.7816 200.537 100.013 200.918 99.9918C201.299 99.9705 201.594 99.7061 201.578 99.4002C201.561 99.0944 201.238 98.8635 200.857 98.8842Z" fill="white" fill-opacity="0.9"/>
<path d="M268.109 111.445C267.873 111.458 267.69 111.622 267.7 111.812C267.71 112.001 267.911 112.144 268.147 112.131C268.384 112.118 268.567 111.954 268.556 111.764C268.546 111.575 268.346 111.432 268.109 111.445Z" fill="white" fill-opacity="0.9"/>
<path d="M248.871 116.826C248.869 116.781 248.908 116.746 248.963 116.743C249.019 116.74 249.062 116.771 249.064 116.815C249.066 116.859 249.027 116.895 248.972 116.898C248.917 116.901 248.873 116.864 248.871 116.826Z" fill="white" fill-opacity="0.9"/>
<path d="M299.819 119.335C299.801 118.997 300.124 118.707 300.545 118.684C300.966 118.661 301.32 118.914 301.338 119.252C301.357 119.589 301.033 119.879 300.612 119.902C300.191 119.931 299.838 119.673 299.819 119.335Z" fill="white" fill-opacity="0.9"/>
<path d="M284.63 128.475C284.398 128.488 284.217 128.649 284.228 128.836C284.238 129.023 284.435 129.164 284.667 129.151C284.9 129.138 285.08 128.977 285.07 128.79C285.06 128.603 284.863 128.462 284.63 128.475Z" fill="white" fill-opacity="0.9"/>
<path d="M149.266 124.065C149.171 124.07 149.098 124.136 149.101 124.212C149.105 124.289 149.187 124.347 149.282 124.341C149.377 124.336 149.451 124.27 149.447 124.193C149.442 124.117 149.362 124.059 149.266 124.065Z" fill="white" fill-opacity="0.9"/>
<path d="M112.345 126.445C112.318 125.946 112.799 125.515 113.42 125.481C114.042 125.447 114.568 125.823 114.596 126.321C114.622 126.82 114.141 127.251 113.52 127.285C112.898 127.325 112.372 126.948 112.345 126.445Z" fill="white" fill-opacity="0.9"/>
<path d="M100.847 119.307C100.828 118.969 101.151 118.679 101.572 118.656C101.994 118.633 102.347 118.886 102.366 119.223C102.384 119.561 102.06 119.851 101.639 119.874C101.218 119.897 100.865 119.644 100.847 119.307Z" fill="white" fill-opacity="0.9"/>
<path d="M143.109 154.6C142.896 154.612 142.73 154.76 142.74 154.931C142.749 155.103 142.93 155.232 143.143 155.22C143.357 155.208 143.522 155.06 143.513 154.889C143.504 154.718 143.323 154.588 143.109 154.6Z" fill="white" fill-opacity="0.9"/>
<path d="M153.463 162.706C153.081 162.727 152.786 162.992 152.803 163.298C152.819 163.603 153.142 163.834 153.524 163.814C153.905 163.792 154.201 163.528 154.184 163.222C154.167 162.916 153.844 162.685 153.463 162.706Z" fill="white" fill-opacity="0.9"/>
<path d="M138.626 175.387C138.272 175.406 137.997 175.652 138.013 175.937C138.029 176.221 138.329 176.436 138.683 176.416C139.038 176.397 139.313 176.151 139.297 175.866C139.281 175.582 138.981 175.367 138.626 175.387Z" fill="white" fill-opacity="0.9"/>
<path d="M123.915 157.246C123.905 157.058 124.089 156.893 124.324 156.879C124.558 156.866 124.761 157.011 124.771 157.199C124.781 157.387 124.596 157.553 124.362 157.566C124.127 157.579 123.925 157.44 123.915 157.246Z" fill="white" fill-opacity="0.9"/>
<path d="M120.218 187.824C119.838 187.845 119.542 188.11 119.558 188.416C119.576 188.721 119.898 188.953 120.279 188.931C120.661 188.911 120.956 188.646 120.939 188.34C120.923 188.034 120.6 187.803 120.218 187.824Z" fill="white" fill-opacity="0.9"/>
<path d="M110.243 195.829C110.229 195.575 110.474 195.361 110.784 195.344C111.095 195.327 111.362 195.518 111.376 195.767C111.389 196.022 111.145 196.235 110.834 196.252C110.523 196.269 110.257 196.084 110.243 195.829Z" fill="white" fill-opacity="0.9"/>
<path d="M162.22 189.819C162.185 189.188 162.799 188.638 163.587 188.595C164.373 188.551 165.044 189.031 165.078 189.663C165.113 190.294 164.499 190.844 163.712 190.887C162.925 190.924 162.255 190.45 162.22 189.819Z" fill="white" fill-opacity="0.9"/>
<path d="M154.129 201.624C153.702 201.648 153.371 201.944 153.39 202.287C153.409 202.629 153.77 202.888 154.197 202.865C154.624 202.841 154.955 202.545 154.936 202.202C154.918 201.86 154.556 201.601 154.129 201.624Z" fill="white" fill-opacity="0.9"/>
<path d="M133.446 201.998C133.435 201.804 133.62 201.633 133.868 201.619C134.11 201.606 134.319 201.756 134.33 201.949C134.34 202.143 134.155 202.314 133.907 202.328C133.658 202.342 133.457 202.192 133.446 201.998Z" fill="white" fill-opacity="0.9"/>
<path d="M217.809 185.527C217.799 185.355 217.964 185.202 218.185 185.189C218.399 185.178 218.586 185.306 218.596 185.484C218.605 185.661 218.44 185.808 218.22 185.821C217.999 185.833 217.818 185.698 217.809 185.527Z" fill="white" fill-opacity="0.9"/>
<path d="M205.317 186.529C205.127 186.539 204.978 186.671 204.987 186.824C204.995 186.977 205.156 187.093 205.347 187.082C205.538 187.071 205.686 186.939 205.677 186.786C205.669 186.633 205.507 186.518 205.317 186.529Z" fill="white" fill-opacity="0.9"/>
<path d="M224.561 201.088C224.558 201.033 224.611 200.986 224.681 200.982C224.75 200.978 224.807 201.019 224.811 201.075C224.814 201.13 224.761 201.177 224.692 201.181C224.622 201.185 224.564 201.144 224.561 201.088Z" fill="white" fill-opacity="0.9"/>
<path d="M256.337 174.935C256.314 174.53 256.704 174.182 257.208 174.154C257.712 174.126 258.137 174.43 258.159 174.835C258.181 175.239 257.792 175.588 257.288 175.615C256.791 175.643 256.359 175.339 256.337 174.935Z" fill="white" fill-opacity="0.9"/>
<path d="M333.749 212.91C333.732 212.599 334.036 212.327 334.422 212.306C334.809 212.285 335.141 212.522 335.158 212.832C335.175 213.148 334.871 213.414 334.485 213.436C334.098 213.457 333.766 213.225 333.749 212.91Z" fill="white" fill-opacity="0.9"/>
<path d="M242.126 233.494C242.117 233.328 242.276 233.186 242.483 233.174C242.69 233.163 242.863 233.287 242.872 233.453C242.881 233.619 242.723 233.761 242.516 233.772C242.315 233.783 242.136 233.66 242.126 233.494Z" fill="white" fill-opacity="0.9"/>
<path d="M285.191 226.723C285.171 226.346 285.54 226.015 286.01 225.989C286.479 225.964 286.883 226.253 286.903 226.629C286.924 227.006 286.555 227.337 286.085 227.362C285.616 227.388 285.213 227.105 285.191 226.723Z" fill="white" fill-opacity="0.9"/>
<path d="M403.888 168.365C403.651 168.377 403.468 168.542 403.478 168.731C403.489 168.921 403.689 169.064 403.925 169.051C404.162 169.038 404.345 168.874 404.334 168.685C404.324 168.495 404.124 168.352 403.888 168.365Z" fill="white" fill-opacity="0.9"/>
<path d="M386.151 164.267C386.139 164.051 386.351 163.862 386.62 163.848C386.889 163.832 387.119 163.998 387.132 164.214C387.143 164.43 386.932 164.619 386.663 164.634C386.394 164.648 386.164 164.489 386.151 164.267Z" fill="white" fill-opacity="0.9"/>
<path d="M375.728 153.622C375.301 153.645 374.97 153.942 374.989 154.284C375.008 154.627 375.369 154.885 375.796 154.862C376.223 154.838 376.554 154.542 376.535 154.2C376.516 153.857 376.155 153.598 375.728 153.622Z" fill="white" fill-opacity="0.9"/>
<path d="M398.623 146.486C398.242 146.506 397.946 146.771 397.963 147.077C397.98 147.383 398.303 147.614 398.684 147.593C399.065 147.572 399.36 147.307 399.344 147.002C399.327 146.696 399.005 146.465 398.623 146.486Z" fill="white" fill-opacity="0.9"/>
<path d="M317.588 256.599C317.573 256.333 317.83 256.103 318.162 256.084C318.493 256.066 318.775 256.267 318.789 256.533C318.803 256.799 318.546 257.03 318.215 257.048C317.883 257.066 317.602 256.865 317.588 256.599Z" fill="white" fill-opacity="0.9"/>
<path d="M296.338 253.211C296.323 252.928 296.593 252.686 296.945 252.666C297.298 252.647 297.593 252.859 297.608 253.141C297.624 253.423 297.353 253.666 297.001 253.685C296.649 253.699 296.353 253.488 296.338 253.211Z" fill="white" fill-opacity="0.9"/>
<path d="M266.973 257.903C266.964 257.742 267.122 257.6 267.323 257.589C267.523 257.579 267.696 257.702 267.705 257.863C267.713 258.023 267.555 258.165 267.355 258.176C267.155 258.187 266.982 258.064 266.973 257.903Z" fill="white" fill-opacity="0.9"/>
<path d="M162.712 248.783C162.285 248.806 161.954 249.103 161.972 249.445C161.991 249.788 162.352 250.046 162.779 250.023C163.206 249.999 163.537 249.703 163.519 249.36C163.5 249.018 163.139 248.759 162.712 248.783Z" fill="white" fill-opacity="0.9"/>
<path d="M141.877 252.33C141.853 251.898 142.269 251.52 142.814 251.49C143.359 251.46 143.814 251.785 143.837 252.222C143.861 252.654 143.446 253.032 142.9 253.062C142.354 253.092 141.901 252.767 141.877 252.33Z" fill="white" fill-opacity="0.9"/>
<path d="M188.664 244.355C188.645 244.023 188.962 243.739 189.376 243.716C189.791 243.694 190.137 243.947 190.155 244.273C190.173 244.606 189.856 244.89 189.442 244.912C189.028 244.935 188.682 244.687 188.664 244.355Z" fill="white" fill-opacity="0.9"/>
<path d="M105.563 258.347C105.086 258.373 104.717 258.704 104.738 259.086C104.759 259.468 105.163 259.757 105.639 259.731C106.115 259.705 106.485 259.374 106.464 258.992C106.443 258.609 106.04 258.321 105.563 258.347Z" fill="white" fill-opacity="0.9"/>
<path d="M332.511 187.166C332.497 186.906 332.747 186.682 333.072 186.664C333.396 186.646 333.67 186.842 333.684 187.103C333.699 187.363 333.448 187.587 333.123 187.605C332.799 187.623 332.525 187.427 332.511 187.166Z" fill="white" fill-opacity="0.9"/>
<path d="M324.657 244.6C324.641 244.306 324.925 244.052 325.291 244.032C325.657 244.012 325.967 244.234 325.983 244.527C325.999 244.82 325.715 245.075 325.349 245.095C324.983 245.115 324.673 244.893 324.657 244.6Z" fill="white" fill-opacity="0.9"/>
<path d="M218.22 259.688C218.212 259.55 218.351 259.425 218.523 259.416C218.696 259.406 218.847 259.515 218.855 259.653C218.862 259.792 218.724 259.916 218.551 259.925C218.371 259.935 218.227 259.826 218.22 259.688Z" fill="white" fill-opacity="0.9"/>
<path d="M146.566 223.174C146.558 223.036 146.696 222.912 146.869 222.902C147.041 222.893 147.193 223.001 147.2 223.139C147.208 223.278 147.069 223.402 146.897 223.412C146.724 223.421 146.573 223.313 146.566 223.174Z" fill="white" fill-opacity="0.9"/>
<path d="M111.529 237.074C111.514 236.802 111.778 236.566 112.116 236.547C112.454 236.529 112.742 236.735 112.757 237.006C112.772 237.277 112.508 237.514 112.17 237.533C111.831 237.551 111.543 237.345 111.529 237.074Z" fill="white" fill-opacity="0.9"/>
<path d="M131.73 138.637C131.722 138.487 131.867 138.357 132.053 138.347C132.24 138.337 132.398 138.45 132.407 138.6C132.415 138.749 132.27 138.879 132.083 138.89C131.897 138.9 131.738 138.787 131.73 138.637Z" fill="white" fill-opacity="0.9"/>
<path d="M183.118 124.662C183.099 124.33 183.416 124.047 183.83 124.024C184.245 124.001 184.591 124.254 184.609 124.581C184.627 124.913 184.311 125.197 183.896 125.22C183.482 125.242 183.136 124.995 183.118 124.662Z" fill="white" fill-opacity="0.9"/>
<path d="M221.025 137.227C221.013 137.012 221.225 136.822 221.494 136.808C221.763 136.792 221.993 136.958 222.006 137.174C222.017 137.39 221.806 137.579 221.537 137.594C221.268 137.608 221.038 137.449 221.025 137.227Z" fill="white" fill-opacity="0.9"/>
<path d="M259.241 157.555C258.669 157.587 258.226 157.984 258.251 158.443C258.276 158.901 258.76 159.247 259.331 159.216C259.904 159.185 260.347 158.787 260.321 158.329C260.296 157.87 259.813 157.524 259.241 157.555Z" fill="white" fill-opacity="0.9"/>
<path d="M260.031 33.0781C260.016 32.796 260.287 32.5535 260.638 32.5341C260.99 32.5146 261.286 32.7266 261.302 33.0086C261.317 33.2907 261.046 33.5332 260.694 33.5527C260.342 33.5667 260.047 33.3553 260.031 33.0781Z" fill="white" fill-opacity="0.9"/>
<path d="M231.305 48.0253C231.293 47.8205 231.491 47.6433 231.747 47.6292C232.003 47.6152 232.219 47.77 232.23 47.9747C232.241 48.1794 232.043 48.3573 231.788 48.3707C231.532 48.3847 231.316 48.23 231.305 48.0253Z" fill="white" fill-opacity="0.9"/>
<path d="M299.552 44.516C299.535 44.184 299.852 43.9001 300.265 43.8776C300.679 43.8544 301.026 44.1024 301.044 44.4344C301.062 44.7664 300.745 45.0503 300.331 45.0729C299.917 45.096 299.571 44.8426 299.552 44.516Z" fill="white" fill-opacity="0.9"/>
<path d="M313.537 82.8483C312.965 82.88 312.522 83.2772 312.547 83.736C312.572 84.1942 313.056 84.5408 313.628 84.5098C314.2 84.4781 314.643 84.0808 314.618 83.6221C314.593 83.1633 314.109 82.8173 313.537 82.8483Z" fill="white" fill-opacity="0.9"/>
<path d="M292.89 86.5409C292.658 86.5537 292.477 86.7152 292.488 86.9016C292.498 87.0881 292.695 87.2288 292.927 87.216C293.16 87.2032 293.34 87.0418 293.33 86.8553C293.319 86.6689 293.122 86.5282 292.89 86.5409Z" fill="white" fill-opacity="0.9"/>
<path d="M166.842 132.058C166.825 131.737 167.135 131.464 167.529 131.443C167.923 131.421 168.261 131.663 168.278 131.979C168.296 132.301 167.986 132.573 167.592 132.594C167.199 132.616 166.86 132.374 166.842 132.058Z" fill="white" fill-opacity="0.9"/>
<path d="M450.172 37.595C450.144 37.0796 450.646 36.6306 451.288 36.5953C451.93 36.56 452.478 36.9517 452.506 37.4671C452.534 37.9819 452.032 38.4315 451.39 38.4663C450.748 38.5016 450.201 38.1099 450.172 37.595Z" fill="white" fill-opacity="0.9"/>
<path d="M432.492 40.336C432.302 40.3464 432.154 40.4786 432.163 40.6315C432.171 40.7844 432.332 40.8996 432.523 40.8892C432.713 40.8789 432.861 40.7467 432.853 40.5937C432.844 40.4408 432.683 40.3251 432.492 40.336Z" fill="white" fill-opacity="0.9"/>
<path d="M485.808 49.7677C485.427 49.7884 485.131 50.0534 485.148 50.3593C485.165 50.6651 485.487 50.896 485.869 50.8747C486.25 50.854 486.545 50.589 486.528 50.2837C486.512 49.9779 486.189 49.747 485.808 49.7677Z" fill="white" fill-opacity="0.9"/>
<path d="M434.217 74.9477C434.122 74.9532 434.048 75.0196 434.052 75.0957C434.057 75.1725 434.137 75.2298 434.233 75.2249C434.328 75.2194 434.401 75.1536 434.397 75.0769C434.394 75.0007 434.313 74.9428 434.217 74.9477Z" fill="white" fill-opacity="0.9"/>
<path d="M397.296 77.328C397.268 76.8296 397.75 76.3977 398.371 76.3642C398.993 76.3301 399.519 76.7066 399.546 77.2043C399.574 77.7027 399.092 78.1346 398.47 78.1687C397.849 78.2029 397.323 77.8264 397.296 77.328Z" fill="white" fill-opacity="0.9"/>
<path d="M385.797 70.1895C385.779 69.852 386.103 69.562 386.524 69.5388C386.945 69.5163 387.298 69.7685 387.316 70.1067C387.335 70.4442 387.012 70.7342 386.591 70.7573C386.169 70.7805 385.816 70.5276 385.797 70.1895Z" fill="white" fill-opacity="0.9"/>
<path d="M427.691 105.814C427.682 105.643 427.847 105.495 428.061 105.484C428.274 105.471 428.455 105.601 428.464 105.772C428.474 105.944 428.308 106.092 428.095 106.103C427.88 106.115 427.7 105.986 427.691 105.814Z" fill="white" fill-opacity="0.9"/>
<path d="M438.414 113.59C438.033 113.61 437.737 113.875 437.754 114.181C437.771 114.487 438.093 114.718 438.474 114.696C438.856 114.676 439.151 114.411 439.135 114.105C439.118 113.8 438.795 113.569 438.414 113.59Z" fill="white" fill-opacity="0.9"/>
<path d="M408.866 108.129C408.855 107.941 409.041 107.775 409.275 107.763C409.51 107.75 409.711 107.894 409.722 108.083C409.732 108.271 409.547 108.437 409.313 108.449C409.078 108.462 408.876 108.318 408.866 108.129Z" fill="white" fill-opacity="0.9"/>
<path d="M416.681 89.5202C416.673 89.3709 416.818 89.2405 417.004 89.2301C417.19 89.2204 417.349 89.3337 417.357 89.483C417.365 89.6329 417.22 89.7626 417.034 89.773C416.847 89.7834 416.689 89.6694 416.681 89.5202Z" fill="white" fill-opacity="0.9"/>
<path d="M468.062 75.5466C468.044 75.2145 468.367 74.93 468.775 74.9075C469.189 74.8849 469.535 75.1378 469.553 75.4649C469.571 75.797 469.247 76.0809 468.84 76.1034C468.433 76.126 468.08 75.8786 468.062 75.5466Z" fill="white" fill-opacity="0.9"/>
<path d="M451.793 82.9409C451.776 82.6199 452.086 82.3475 452.48 82.3262C452.88 82.3043 453.212 82.5468 453.229 82.8624C453.247 83.1834 452.937 83.4564 452.543 83.4777C452.15 83.499 451.811 83.2565 451.793 82.9409Z" fill="white" fill-opacity="0.9"/>
<path d="M221.679 117.839C221.667 117.623 221.878 117.434 222.148 117.419C222.417 117.405 222.648 117.57 222.659 117.785C222.671 118.001 222.46 118.191 222.191 118.205C221.922 118.226 221.691 118.061 221.679 117.839Z" fill="white" fill-opacity="0.9"/>
<path d="M213.457 217.923C213.441 217.636 213.719 217.387 214.078 217.367C214.437 217.348 214.739 217.564 214.755 217.852C214.771 218.14 214.494 218.389 214.135 218.408C213.776 218.428 213.473 218.211 213.457 217.923Z" fill="white" fill-opacity="0.9"/>
<path d="M188.18 207.382C187.982 207.392 187.828 207.53 187.837 207.689C187.845 207.848 188.014 207.968 188.212 207.957C188.41 207.946 188.564 207.809 188.555 207.65C188.546 207.491 188.378 207.371 188.18 207.382Z" fill="white" fill-opacity="0.9"/>
<path d="M243.72 76.182C243.366 76.2015 243.091 76.4476 243.106 76.7316C243.122 77.0161 243.422 77.2311 243.776 77.2116C244.131 77.1921 244.406 76.946 244.39 76.6615C244.375 76.377 244.075 76.1625 243.72 76.182Z" fill="white" fill-opacity="0.9"/>
<path d="M238.634 14.7381C237.989 14.7734 237.489 15.2212 237.518 15.7378C237.546 16.2545 238.091 16.645 238.736 16.6097C239.381 16.5743 239.88 16.1265 239.852 15.6099C239.823 15.0933 239.278 14.7027 238.634 14.7381Z" fill="white" fill-opacity="0.9"/>
<path d="M228.678 24.8686C228.442 24.882 228.258 25.0459 228.269 25.2354C228.279 25.4248 228.479 25.568 228.715 25.5552C228.952 25.5424 229.135 25.3779 229.125 25.1884C229.114 24.999 228.914 24.8558 228.678 24.8686Z" fill="white" fill-opacity="0.9"/>
<path d="M234.036 1.11299C233.751 1.12883 233.529 1.32744 233.542 1.55652C233.554 1.7862 233.796 1.95923 234.082 1.94339C234.368 1.92816 234.589 1.72955 234.577 1.49986C234.564 1.27079 234.322 1.09715 234.036 1.11299Z" fill="white" fill-opacity="0.9"/>
<path d="M276.431 7.87864C276.218 7.89022 276.052 8.03887 276.062 8.21007C276.071 8.38127 276.252 8.51043 276.465 8.49885C276.678 8.48728 276.844 8.33862 276.835 8.16742C276.825 7.99622 276.645 7.86706 276.431 7.87864Z" fill="white" fill-opacity="0.9"/>
<path d="M292.198 24.6839C291.772 24.7071 291.44 25.0038 291.459 25.3462C291.478 25.6886 291.839 25.9475 292.266 25.9244C292.694 25.9006 293.024 25.6039 293.005 25.2615C292.987 24.9191 292.625 24.6608 292.198 24.6839Z" fill="white" fill-opacity="0.9"/>
<path d="M284.887 29.4885C284.673 29.5 284.508 29.6487 284.517 29.8199C284.527 29.9911 284.707 30.1203 284.921 30.1087C285.134 30.0971 285.3 29.9484 285.291 29.7773C285.281 29.6061 285.101 29.4769 284.887 29.4885Z" fill="white" fill-opacity="0.9"/>
<path d="M317.815 0.000520259C317.651 0.00965889 317.524 0.123587 317.532 0.255183C317.538 0.38678 317.677 0.486094 317.841 0.476956C318.005 0.467817 318.132 0.353889 318.125 0.222293C318.118 0.0913057 317.979 -0.00800913 317.815 0.000520259Z" fill="white" fill-opacity="0.9"/>
<path d="M109.196 90.8666C108.814 90.8873 108.519 91.1523 108.536 91.4582C108.552 91.764 108.875 91.9949 109.257 91.9742C109.638 91.9528 109.933 91.6885 109.917 91.3826C109.9 91.0768 109.577 90.8459 109.196 90.8666Z" fill="white" fill-opacity="0.9"/>
<path d="M100.473 93.9329C100.283 93.9433 100.135 94.0755 100.143 94.2284C100.152 94.3813 100.313 94.4971 100.504 94.4861C100.694 94.4757 100.842 94.3435 100.833 94.1906C100.825 94.0377 100.664 93.9219 100.473 93.9329Z" fill="white" fill-opacity="0.9"/>
<path d="M132.267 79.7449C131.84 79.768 131.509 80.0647 131.528 80.4071C131.547 80.7495 131.908 81.0084 132.335 80.9847C132.762 80.9615 133.093 80.6648 133.075 80.3224C133.056 79.98 132.694 79.7211 132.267 79.7449Z" fill="white" fill-opacity="0.9"/>
<path d="M45.8364 76.8211C45.6232 76.8327 45.4575 76.9813 45.4666 77.1525C45.4764 77.3237 45.6567 77.4529 45.8706 77.4413C46.0838 77.4297 46.2495 77.2811 46.2398 77.1099C46.2307 76.9387 46.0497 76.8095 45.8364 76.8211Z" fill="white" fill-opacity="0.9"/>
<path d="M61.6037 93.6264C61.1766 93.6496 60.8458 93.9463 60.8646 94.2887C60.8835 94.6311 61.2448 94.89 61.6719 94.8663C62.099 94.8431 62.4298 94.5464 62.4109 94.204C62.392 93.8616 62.0307 93.6027 61.6037 93.6264Z" fill="white" fill-opacity="0.9"/>
<path d="M54.2922 98.431C54.0783 98.4425 53.9132 98.5912 53.9224 98.7624C53.9321 98.9336 54.1124 99.0627 54.3263 99.0511C54.5395 99.0396 54.7052 98.8909 54.6955 98.7197C54.6863 98.5485 54.5054 98.4194 54.2922 98.431Z" fill="white" fill-opacity="0.9"/>
<path d="M86.9365 69.1977C86.9292 69.0648 87.0547 68.9521 87.2205 68.943C87.3862 68.9339 87.5233 69.0319 87.5306 69.1647C87.5379 69.2976 87.4124 69.4103 87.2467 69.4194C87.0803 69.4231 86.9439 69.325 86.9365 69.1977Z" fill="white" fill-opacity="0.9"/>
<path d="M243.2 101.171C243.185 100.895 243.449 100.658 243.794 100.639C244.139 100.62 244.428 100.826 244.443 101.103C244.458 101.38 244.194 101.617 243.849 101.636C243.504 101.66 243.215 101.449 243.2 101.171Z" fill="white" fill-opacity="0.9"/>
<path d="M314.878 153.904C314.873 153.81 314.966 153.733 315.076 153.727C315.193 153.72 315.288 153.793 315.292 153.882C315.298 153.976 315.205 154.053 315.095 154.059C314.977 154.071 314.883 153.999 314.878 153.904Z" fill="white" fill-opacity="0.9"/>
<path d="M290.239 176.84C289.667 176.871 289.224 177.269 289.249 177.727C289.274 178.186 289.758 178.533 290.33 178.501C290.902 178.47 291.345 178.073 291.32 177.614C291.295 177.155 290.811 176.809 290.239 176.84Z" fill="white" fill-opacity="0.9"/>
<path d="M276.802 173.118C276.801 173.095 276.82 173.072 276.855 173.07C276.89 173.068 276.911 173.084 276.913 173.112C276.914 173.134 276.895 173.158 276.86 173.159C276.825 173.161 276.803 173.14 276.802 173.118Z" fill="white" fill-opacity="0.9"/>
<path d="M321.089 173.599C320.826 173.614 320.622 173.797 320.634 174.007C320.646 174.218 320.868 174.378 321.131 174.363C321.394 174.349 321.598 174.166 321.586 173.955C321.575 173.744 321.352 173.585 321.089 173.599Z" fill="white" fill-opacity="0.9"/>
<path d="M296.245 150.756C296.218 150.257 296.7 149.826 297.321 149.792C297.942 149.758 298.469 150.134 298.496 150.633C298.523 151.13 298.041 151.562 297.42 151.596C296.799 151.631 296.273 151.254 296.245 150.756Z" fill="white" fill-opacity="0.9"/>
<path d="M344.915 136.975C344.886 136.421 345.42 135.937 346.117 135.899C346.814 135.86 347.398 136.278 347.428 136.838C347.459 137.391 346.925 137.876 346.227 137.914C345.53 137.952 344.946 137.529 344.915 136.975Z" fill="white" fill-opacity="0.9"/>
<path d="M329.772 127.499C329.009 127.541 328.418 128.071 328.452 128.682C328.485 129.293 329.13 129.756 329.893 129.714C330.656 129.672 331.247 129.142 331.213 128.531C331.179 127.919 330.534 127.457 329.772 127.499Z" fill="white" fill-opacity="0.9"/>
<path d="M360.397 111.076C360.389 110.916 360.541 110.78 360.741 110.769C360.941 110.758 361.107 110.877 361.116 111.037C361.124 111.198 360.973 111.333 360.773 111.344C360.572 111.355 360.406 111.231 360.397 111.076Z" fill="white" fill-opacity="0.9"/>
<path d="M363.738 131.584C363.721 131.274 364.018 131.008 364.404 130.986C364.791 130.965 365.115 131.197 365.132 131.507C365.149 131.817 364.853 132.084 364.466 132.105C364.08 132.126 363.755 131.894 363.738 131.584Z" fill="white" fill-opacity="0.9"/>
<path d="M354.409 96.0616C354.146 96.0756 353.942 96.2584 353.953 96.4698C353.965 96.6806 354.187 96.8396 354.451 96.8256C354.714 96.811 354.918 96.6282 354.906 96.4174C354.895 96.2066 354.672 96.047 354.409 96.0616Z" fill="white" fill-opacity="0.9"/>
<path d="M398.35 99.9711C397.683 100.008 397.166 100.471 397.196 101.006C397.225 101.542 397.79 101.946 398.457 101.909C399.124 101.873 399.641 101.409 399.612 100.874C399.582 100.338 399.018 99.9346 398.35 99.9711Z" fill="white" fill-opacity="0.9"/>
<path d="M395.514 83.4673C395.323 83.4777 395.175 83.6105 395.183 83.7634C395.192 83.9163 395.353 84.0315 395.544 84.0211C395.735 84.0108 395.882 83.8786 395.874 83.7257C395.866 83.5727 395.704 83.457 395.514 83.4673Z" fill="white" fill-opacity="0.9"/>
<path d="M360.994 185.966C360.983 185.766 361.174 185.595 361.423 185.581C361.671 185.568 361.88 185.717 361.891 185.916C361.902 186.116 361.711 186.287 361.462 186.301C361.214 186.315 361.005 186.165 360.994 185.966Z" fill="white" fill-opacity="0.9"/>
<path d="M297.711 197.432C297.104 197.466 296.635 197.887 296.662 198.373C296.688 198.859 297.201 199.226 297.808 199.193C298.414 199.16 298.883 198.738 298.857 198.252C298.83 197.766 298.317 197.399 297.711 197.432Z" fill="white" fill-opacity="0.9"/>
<path d="M257.961 209.974C257.289 210.011 256.77 210.477 256.799 211.015C256.828 211.554 257.396 211.96 258.067 211.923C258.739 211.886 259.258 211.42 259.229 210.882C259.199 210.344 258.631 209.938 257.961 209.974Z" fill="white" fill-opacity="0.9"/>
<path d="M237.075 257.027C237.073 256.994 237.106 256.965 237.147 256.963C237.189 256.96 237.224 256.986 237.226 257.019C237.227 257.052 237.195 257.081 237.154 257.084C237.113 257.092 237.077 257.066 237.075 257.027Z" fill="white" fill-opacity="0.9"/>
<path d="M201.433 8.61519C201.417 8.33311 201.687 8.09004 202.039 8.07115C202.392 8.05166 202.687 8.26306 202.702 8.54575C202.718 8.82783 202.448 9.07031 202.096 9.0898C201.743 9.10321 201.447 8.89179 201.433 8.61519Z" fill="white" fill-opacity="0.9"/>
<path d="M172.067 13.3076C172.059 13.1468 172.217 13.0048 172.417 12.9938C172.617 12.9829 172.79 13.1065 172.799 13.2674C172.808 13.4276 172.65 13.5696 172.449 13.5805C172.249 13.5915 172.076 13.4678 172.067 13.3076Z" fill="white" fill-opacity="0.9"/>
<path d="M142.169 12.4318C142.168 12.399 142.2 12.3693 142.241 12.3675C142.283 12.365 142.319 12.3905 142.32 12.4233C142.322 12.4566 142.289 12.4857 142.248 12.4882C142.208 12.4961 142.172 12.4706 142.169 12.4318Z" fill="white" fill-opacity="0.9"/>
<path d="M2.57055 196.736C2.56141 196.564 2.72593 196.411 2.94708 196.399C3.16093 196.387 3.34794 196.515 3.35768 196.693C3.36743 196.864 3.20232 197.018 2.98178 197.03C2.76062 197.036 2.58029 196.908 2.57055 196.736Z" fill="white" fill-opacity="0.9"/>
<path d="M9.32334 212.297C9.3203 212.242 9.3733 212.195 9.44215 212.191C9.5116 212.187 9.56888 212.228 9.57193 212.284C9.57497 212.339 9.52257 212.386 9.45312 212.39C9.38427 212.388 9.32639 212.347 9.32334 212.297Z" fill="white" fill-opacity="0.9"/>
<path d="M50.7604 244.771C50.7512 244.605 50.9096 244.463 51.1168 244.451C51.3239 244.44 51.497 244.564 51.5061 244.73C51.5152 244.896 51.3568 245.038 51.1497 245.049C50.9425 245.061 50.7695 244.937 50.7604 244.771Z" fill="white" fill-opacity="0.9"/>
<path d="M20.9294 237.055C20.5712 237.075 20.2933 237.324 20.3092 237.611C20.3244 237.899 20.6278 238.116 20.9867 238.096C21.3449 238.076 21.6227 237.827 21.6069 237.54C21.591 237.253 21.2876 237.035 20.9294 237.055Z" fill="white" fill-opacity="0.9"/>
<path d="M42.7226 221.183C42.0513 221.22 41.5316 221.686 41.5608 222.224C41.5906 222.762 42.1585 223.169 42.8293 223.132C43.5006 223.095 44.0203 222.629 43.9911 222.091C43.9612 221.553 43.3934 221.146 42.7226 221.183Z" fill="white" fill-opacity="0.9"/>
<path d="M401.859 211.812C401.669 211.823 401.521 211.955 401.529 212.108C401.538 212.261 401.699 212.376 401.889 212.366C402.08 212.355 402.228 212.223 402.219 212.07C402.211 211.917 402.05 211.802 401.859 211.812Z" fill="white" fill-opacity="0.9"/>
<path d="M390.038 223.533C389.798 223.547 389.612 223.713 389.622 223.906C389.633 224.099 389.836 224.244 390.076 224.231C390.317 224.218 390.503 224.051 390.492 223.858C390.482 223.666 390.278 223.52 390.038 223.533Z" fill="white" fill-opacity="0.9"/>
<path d="M418.388 244.763C418.367 244.403 418.717 244.09 419.166 244.065C419.615 244.04 419.997 244.314 420.017 244.674C420.036 245.034 419.686 245.347 419.237 245.372C418.782 245.397 418.407 245.123 418.388 244.763Z" fill="white" fill-opacity="0.9"/>
<path d="M407.129 197.041C406.446 197.078 405.918 197.552 405.947 198.099C405.977 198.647 406.555 199.06 407.237 199.023C407.92 198.985 408.449 198.511 408.419 197.964C408.389 197.417 407.811 197.003 407.129 197.041Z" fill="white" fill-opacity="0.9"/>
<path d="M61.6 159.975C61.3636 159.988 61.1802 160.152 61.1906 160.342C61.2009 160.531 61.4014 160.674 61.6378 160.661C61.8742 160.649 62.0569 160.484 62.0465 160.295C62.0362 160.105 61.8364 159.962 61.6 159.975Z" fill="white" fill-opacity="0.9"/>
<path d="M57.7015 141.658C57.6893 141.442 57.9007 141.253 58.17 141.238C58.4393 141.224 58.6696 141.389 58.6818 141.604C58.6933 141.82 58.4819 142.009 58.2126 142.024C57.9367 142.039 57.7131 141.874 57.7015 141.658Z" fill="white" fill-opacity="0.9"/>
<path d="M36.7362 135.378C36.3091 135.401 35.9783 135.698 35.9966 136.04C36.0155 136.382 36.3767 136.641 36.8038 136.618C37.2309 136.594 37.5617 136.298 37.5434 135.955C37.5246 135.613 37.1633 135.354 36.7362 135.378Z" fill="white" fill-opacity="0.9"/>
<path d="M70.166 123.877C69.7852 123.897 69.4897 124.162 69.5061 124.468C69.5232 124.774 69.8455 125.005 70.2269 124.984C70.6083 124.963 70.9037 124.698 70.8867 124.393C70.8702 124.087 70.5473 123.856 70.166 123.877Z" fill="white" fill-opacity="0.9"/>
<path d="M4.06069 164.557C4.04606 164.297 4.29709 164.073 4.62181 164.054C4.94593 164.037 5.22009 164.233 5.2341 164.493C5.24872 164.753 4.9977 164.978 4.67298 164.996C4.34825 165.008 4.0747 164.812 4.06069 164.557Z" fill="white" fill-opacity="0.9"/>
<path d="M16.4655 114.366C16.4356 113.812 16.9699 113.328 17.6669 113.289C18.3572 113.251 18.9482 113.669 18.9786 114.228C19.0091 114.782 18.4748 115.266 17.7772 115.305C17.0796 115.337 16.496 114.919 16.4655 114.366Z" fill="white" fill-opacity="0.9"/>
<path d="M1.32159 104.884C0.558822 104.926 -0.0321387 105.455 0.00136965 106.067C0.034878 106.679 0.680655 107.141 1.44282 107.099C2.20559 107.057 2.79659 106.527 2.76308 105.915C2.72957 105.304 2.08436 104.843 1.32159 104.884Z" fill="white" fill-opacity="0.9"/>
<path d="M31.9476 88.4613C31.9384 88.3005 32.0908 88.1646 32.2906 88.1536C32.4911 88.1427 32.6568 88.2615 32.6653 88.4217C32.6744 88.5825 32.5227 88.7184 32.3223 88.7294C32.1218 88.7403 31.9561 88.6215 31.9476 88.4613Z" fill="white" fill-opacity="0.9"/>
<path d="M35.9546 108.377C35.5696 108.398 35.271 108.666 35.2881 108.974C35.3052 109.283 35.6311 109.517 36.0161 109.495C36.4012 109.474 36.6997 109.207 36.6827 108.898C36.6656 108.589 36.3396 108.356 35.9546 108.377Z" fill="white" fill-opacity="0.9"/>
<path d="M25.9514 73.4471C25.6888 73.4611 25.4847 73.6439 25.4963 73.8547C25.5079 74.0661 25.7302 74.2251 25.9934 74.2111C26.2566 74.1965 26.4608 74.0137 26.4492 73.8029C26.4376 73.5915 26.2146 73.4325 25.9514 73.4471Z" fill="white" fill-opacity="0.9"/>
<path d="M69.9003 77.356C69.2332 77.3926 68.716 77.8562 68.7452 78.3911C68.7745 78.9267 69.3392 79.3306 70.0063 79.294C70.6734 79.2575 71.1907 78.7938 71.1614 78.2589C71.1322 77.724 70.5675 77.3195 69.9003 77.356Z" fill="white" fill-opacity="0.9"/>
<path d="M202.147 180.877C201.957 180.888 201.809 181.02 201.817 181.173C201.826 181.326 201.987 181.441 202.178 181.43C202.368 181.42 202.516 181.288 202.507 181.135C202.499 180.982 202.338 180.866 202.147 180.877Z" fill="white" fill-opacity="0.9"/>
<path d="M32.5373 163.357C32.5263 163.157 32.7176 162.986 32.9662 162.972C33.2148 162.959 33.4238 163.108 33.4347 163.307C33.4457 163.507 33.2538 163.678 33.0052 163.692C32.7572 163.706 32.5477 163.55 32.5373 163.357Z" fill="white" fill-opacity="0.9"/>
<path d="M58.2979 184.867C58.1072 184.878 57.9598 185.01 57.9683 185.163C57.9762 185.316 58.1377 185.431 58.3284 185.421C58.5191 185.41 58.6671 185.278 58.6586 185.125C58.6501 184.972 58.4886 184.857 58.2979 184.867Z" fill="white" fill-opacity="0.9"/>
<path d="M61.1723 201.297C61.1619 201.103 61.3466 200.937 61.5884 200.924C61.8297 200.911 62.0313 201.055 62.0423 201.249C62.0527 201.443 61.868 201.608 61.6262 201.622C61.3849 201.635 61.1833 201.49 61.1723 201.297Z" fill="white" fill-opacity="0.9"/>
<path d="M89.9377 222.154C89.9176 221.794 90.2673 221.48 90.7163 221.456C91.1647 221.431 91.5467 221.704 91.5668 222.064C91.5863 222.424 91.2366 222.738 90.7876 222.762C90.3319 222.782 89.9572 222.514 89.9377 222.154Z" fill="white" fill-opacity="0.9"/>
<path d="M78.6789 174.426C77.9959 174.463 77.4671 174.937 77.497 175.485C77.5274 176.032 78.105 176.446 78.7873 176.408C79.4697 176.371 79.9985 175.897 79.9687 175.349C79.9388 174.802 79.3613 174.388 78.6789 174.426Z" fill="white" fill-opacity="0.9"/>
<path d="M438.508 149.913C438.295 149.924 438.129 150.073 438.139 150.244C438.148 150.415 438.329 150.544 438.543 150.533C438.756 150.521 438.921 150.373 438.912 150.201C438.903 150.03 438.722 149.901 438.508 149.913Z" fill="white" fill-opacity="0.9"/>
<path d="M448.862 158.018C448.48 158.04 448.185 158.304 448.202 158.61C448.218 158.916 448.541 159.147 448.922 159.126C449.304 159.105 449.599 158.84 449.582 158.535C449.565 158.229 449.243 157.998 448.862 158.018Z" fill="white" fill-opacity="0.9"/>
<path d="M433.405 171.249C433.389 170.962 433.667 170.719 434.019 170.699C434.378 170.68 434.673 170.897 434.689 171.179C434.704 171.461 434.427 171.71 434.075 171.73C433.723 171.754 433.421 171.538 433.405 171.249Z" fill="white" fill-opacity="0.9"/>
<path d="M419.314 152.559C419.303 152.371 419.488 152.205 419.723 152.192C419.958 152.18 420.159 152.324 420.17 152.512C420.18 152.7 419.995 152.866 419.761 152.878C419.519 152.892 419.324 152.747 419.314 152.559Z" fill="white" fill-opacity="0.9"/>
<path d="M415.617 183.137C415.236 183.158 414.94 183.423 414.957 183.729C414.974 184.034 415.297 184.265 415.678 184.244C416.059 184.223 416.355 183.958 416.338 183.652C416.321 183.347 415.999 183.116 415.617 183.137Z" fill="white" fill-opacity="0.9"/>
<path d="M405.642 191.142C405.628 190.887 405.872 190.674 406.183 190.657C406.501 190.639 406.761 190.83 406.774 191.08C406.788 191.329 406.544 191.548 406.233 191.565C405.922 191.582 405.656 191.396 405.642 191.142Z" fill="white" fill-opacity="0.9"/>
<path d="M458.985 183.902C458.196 183.945 457.584 184.493 457.619 185.126C457.653 185.759 458.321 186.237 459.11 186.194C459.9 186.151 460.511 185.603 460.477 184.97C460.442 184.337 459.774 183.858 458.985 183.902Z" fill="white" fill-opacity="0.9"/>
<path d="M449.521 196.938C449.094 196.961 448.763 197.257 448.782 197.6C448.8 197.942 449.162 198.201 449.589 198.177C450.016 198.154 450.347 197.857 450.328 197.515C450.309 197.173 449.948 196.914 449.521 196.938Z" fill="white" fill-opacity="0.9"/>
<path d="M428.845 197.31C428.834 197.117 429.025 196.945 429.267 196.932C429.509 196.919 429.717 197.062 429.728 197.262C429.739 197.456 429.547 197.627 429.306 197.641C429.057 197.648 428.855 197.504 428.845 197.31Z" fill="white" fill-opacity="0.9"/>
<path d="M458.11 244.095C457.683 244.119 457.352 244.415 457.371 244.758C457.39 245.1 457.751 245.359 458.178 245.335C458.605 245.312 458.936 245.015 458.917 244.673C458.899 244.33 458.537 244.072 458.11 244.095Z" fill="white" fill-opacity="0.9"/>
<path d="M437.275 247.642C437.252 247.21 437.668 246.832 438.213 246.802C438.751 246.773 439.212 247.097 439.236 247.535C439.26 247.967 438.844 248.345 438.299 248.375C437.754 248.405 437.299 248.074 437.275 247.642Z" fill="white" fill-opacity="0.9"/>
<path d="M486.517 225.967C486.499 225.635 486.822 225.35 487.23 225.328C487.644 225.305 487.99 225.559 488.008 225.885C488.026 226.212 487.703 226.502 487.295 226.524C486.881 226.552 486.535 226.299 486.517 225.967Z" fill="white" fill-opacity="0.9"/>
<path d="M400.962 253.66C400.486 253.686 400.116 254.017 400.137 254.399C400.158 254.781 400.561 255.07 401.038 255.044C401.515 255.017 401.884 254.686 401.863 254.304C401.842 253.922 401.438 253.633 400.962 253.66Z" fill="white" fill-opacity="0.9"/>
<path d="M441.964 218.487C441.957 218.348 442.095 218.224 442.267 218.215C442.44 218.205 442.592 218.314 442.599 218.452C442.607 218.59 442.468 218.715 442.295 218.724C442.116 218.734 441.972 218.625 441.964 218.487Z" fill="white" fill-opacity="0.9"/>
<path d="M406.927 232.386C406.913 232.115 407.176 231.878 407.515 231.86C407.853 231.841 408.141 232.047 408.156 232.319C408.171 232.59 407.907 232.827 407.569 232.845C407.231 232.864 406.942 232.657 406.927 232.386Z" fill="white" fill-opacity="0.9"/>
<path d="M427.122 133.95C427.114 133.801 427.259 133.67 427.445 133.66C427.632 133.65 427.79 133.763 427.799 133.913C427.806 134.062 427.661 134.192 427.475 134.203C427.289 134.213 427.13 134.1 427.122 133.95Z" fill="white" fill-opacity="0.9"/>
<path d="M478.51 119.976C478.491 119.644 478.815 119.359 479.222 119.337C479.63 119.315 479.983 119.562 480.001 119.894C480.019 120.226 479.695 120.51 479.288 120.533C478.881 120.555 478.528 120.308 478.51 119.976Z" fill="white" fill-opacity="0.9"/>
<path d="M462.241 127.371C462.224 127.049 462.534 126.777 462.928 126.755C463.321 126.734 463.66 126.976 463.677 127.292C463.695 127.613 463.384 127.885 462.991 127.907C462.597 127.929 462.259 127.686 462.241 127.371Z" fill="white" fill-opacity="0.9"/>
<path d="M483.579 202.694C483.381 202.705 483.227 202.843 483.236 203.002C483.244 203.161 483.412 203.281 483.611 203.27C483.809 203.259 483.962 203.121 483.954 202.962C483.945 202.803 483.777 202.683 483.579 202.694Z" fill="white" fill-opacity="0.9"/>
<path d="M370.836 141.068C370.6 141.081 370.416 141.245 370.427 141.435C370.438 141.624 370.638 141.768 370.874 141.754C371.11 141.741 371.294 141.577 371.283 141.388C371.273 141.198 371.073 141.055 370.836 141.068Z" fill="white" fill-opacity="0.9"/>
<path d="M353.093 136.971C353.081 136.755 353.292 136.566 353.562 136.551C353.831 136.536 354.061 136.701 354.074 136.917C354.085 137.133 353.874 137.323 353.605 137.337C353.336 137.352 353.105 137.187 353.093 136.971Z" fill="white" fill-opacity="0.9"/>
<path d="M368.801 184.51C368.61 184.521 368.463 184.653 368.471 184.806C368.479 184.959 368.64 185.074 368.831 185.064C369.022 185.054 369.169 184.921 369.161 184.768C369.153 184.616 368.991 184.5 368.801 184.51Z" fill="white" fill-opacity="0.9"/>
<path d="M356.564 196.61C356.554 196.416 356.738 196.25 356.98 196.237C357.221 196.223 357.424 196.368 357.434 196.562C357.444 196.755 357.26 196.921 357.019 196.934C356.783 196.947 356.574 196.798 356.564 196.61Z" fill="white" fill-opacity="0.9"/>
<path d="M385.329 217.461C385.309 217.101 385.659 216.788 386.108 216.763C386.556 216.738 386.938 217.012 386.958 217.372C386.978 217.732 386.628 218.045 386.179 218.07C385.731 218.094 385.349 217.821 385.329 217.461Z" fill="white" fill-opacity="0.9"/>
<path d="M372.896 170.797C372.866 170.249 373.394 169.776 374.077 169.738C374.761 169.701 375.337 170.114 375.367 170.661C375.398 171.21 374.869 171.683 374.186 171.72C373.502 171.758 372.926 171.346 372.896 170.797Z" fill="white" fill-opacity="0.9"/>
<path d="M379.61 160.155C378.466 159.874 377.323 159.487 376.121 159.536C375.817 159.547 375.487 159.582 375.218 159.475C374.907 159.347 374.759 159.061 374.559 158.833C373.953 158.128 372.811 157.885 371.745 157.76C370.679 157.641 369.546 157.576 368.681 157.073C367.816 156.576 367.415 155.449 368.205 154.839C368.73 154.432 369.582 154.43 370.238 154.65C370.894 154.875 371.415 155.285 371.948 155.661C373.454 156.728 375.177 157.594 377.032 158.209C379.225 158.938 408.784 170.028 414.775 172.443C401.733 167.466 385.485 161.583 379.61 160.155Z" fill="url(#paint0_linear)"/>
<path d="M150.538 141.325C150.44 141.303 150.35 141.286 150.264 141.246C150.186 141.211 150.121 141.165 150.05 141.13C149.951 141.086 149.84 141.075 149.721 141.06C149.47 141.029 149.219 140.998 148.968 140.968C148.766 140.94 148.543 140.913 148.391 140.805C148.24 140.697 148.179 140.478 148.332 140.364C148.491 140.238 148.751 140.296 148.942 140.369C149.31 140.505 149.657 140.668 150.019 140.815C150.599 141.05 151.206 141.25 151.812 141.445C152.468 141.659 153.13 141.866 153.786 142.08C155.118 142.507 156.457 142.939 157.79 143.366C156.725 143.024 155.596 142.775 154.525 142.434C153.222 142.017 151.905 141.617 150.538 141.325Z" fill="url(#paint1_linear)"/>
<path d="M403.002 116.231C402.939 116.217 402.883 116.204 402.826 116.179C402.776 116.16 402.74 116.128 402.69 116.103C402.626 116.073 402.557 116.066 402.48 116.059C402.32 116.04 402.16 116.021 402.006 116.002C401.874 115.987 401.735 115.967 401.641 115.9C401.54 115.833 401.504 115.691 401.604 115.619C401.704 115.541 401.872 115.576 401.992 115.625C402.226 115.712 402.453 115.816 402.68 115.909C403.048 116.061 403.436 116.184 403.824 116.308C404.246 116.44 404.662 116.578 405.085 116.711C405.938 116.986 406.783 117.256 407.636 117.531C406.96 117.313 406.238 117.152 405.554 116.935C404.716 116.67 403.871 116.416 403.002 116.231Z" fill="url(#paint2_linear)"/>
<path d="M102.112 239.611C102.049 239.598 101.993 239.584 101.936 239.559C101.887 239.54 101.85 239.508 101.801 239.483C101.737 239.454 101.667 239.446 101.591 239.439C101.43 239.421 101.27 239.402 101.117 239.382C100.984 239.367 100.844 239.347 100.751 239.28C100.65 239.213 100.615 239.071 100.715 238.999C100.815 238.921 100.982 238.956 101.103 239.005C101.336 239.093 101.563 239.197 101.79 239.29C102.158 239.442 102.546 239.565 102.933 239.688C103.356 239.82 103.772 239.958 104.195 240.091C105.048 240.366 105.894 240.636 106.747 240.912C106.07 240.693 105.348 240.533 104.664 240.315C103.826 240.05 102.981 239.796 102.112 239.611Z" fill="url(#paint3_linear)"/>
<path d="M207.988 66.7845C207.145 66.4421 206.267 66.0905 205.318 66.0869C204.473 66.0832 203.518 66.3409 202.838 65.94C202.351 65.6555 201.896 65.0475 201.37 65.304C201.342 64.7947 200.536 64.6277 199.921 64.5229C198.978 64.3633 198.074 64.0465 197.295 63.6005C197.236 63.2758 197.656 62.9864 198.063 62.9584C198.47 62.931 198.859 63.0869 199.214 63.2454C199.995 63.5914 200.75 63.9777 201.472 64.3932C201.701 64.5248 201.93 64.6624 202.178 64.7709C202.526 64.9238 202.905 65.0201 203.284 65.1157C210.262 66.9709 216.616 69.8154 223.029 72.6234C221.011 71.5572 218.697 71.1673 216.537 70.2864C213.689 69.1154 210.842 67.9499 207.988 66.7845Z" fill="url(#paint4_linear)"/>
<path d="M235.283 215.915C233.754 215.555 232.211 215.195 230.618 215.055C229.783 214.984 228.944 214.969 228.11 215.02C227.268 215.072 226.172 215.054 225.936 214.407C225.765 213.933 226.298 213.42 226.901 213.326C227.513 213.232 228.128 213.459 228.595 213.767C228.788 213.895 228.977 214.04 229.209 214.116C229.646 214.259 230.158 214.131 230.62 214.205C231.192 214.296 231.608 214.679 232.126 214.895C232.75 215.16 233.498 215.18 234.203 215.28C234.943 215.384 235.653 215.584 236.363 215.778C240.877 217.036 245.392 218.287 249.906 219.545C244.997 218.415 240.187 217.068 235.283 215.915Z" fill="url(#paint5_linear)"/>
<defs>
<linearGradient id="paint0_linear" x1="364.395" y1="155.413" x2="377.17" y2="161.483" gradientUnits="userSpaceOnUse">
<stop stop-color="#00EFA9"/>
<stop offset="1" stop-color="#3F56F0"/>
</linearGradient>
<linearGradient id="paint1_linear" x1="148.788" y1="142.653" x2="157.036" y2="140.48" gradientUnits="userSpaceOnUse">
<stop stop-color="#00EFA9"/>
<stop offset="1" stop-color="#3F56F0"/>
</linearGradient>
<linearGradient id="paint2_linear" x1="401.89" y1="117.074" x2="407.143" y2="115.69" gradientUnits="userSpaceOnUse">
<stop stop-color="#00EFA9"/>
<stop offset="1" stop-color="#3F56F0"/>
</linearGradient>
<linearGradient id="paint3_linear" x1="100.999" y1="240.456" x2="106.252" y2="239.071" gradientUnits="userSpaceOnUse">
<stop stop-color="#FFAB67"/>
<stop offset="0.0554" stop-color="#FF9F6C"/>
<stop offset="0.3301" stop-color="#FF6784"/>
<stop offset="0.4627" stop-color="#FF518D"/>
<stop offset="1" stop-color="#5E309D"/>
</linearGradient>
<linearGradient id="paint4_linear" x1="197.565" y1="68.4989" x2="222.729" y2="67.1189" gradientUnits="userSpaceOnUse">
<stop stop-color="#FFAB67"/>
<stop offset="0.0554" stop-color="#FF9F6C"/>
<stop offset="0.3301" stop-color="#FF6784"/>
<stop offset="0.4627" stop-color="#FF518D"/>
<stop offset="1" stop-color="#5E309D"/>
</linearGradient>
<linearGradient id="paint5_linear" x1="227.059" y1="218.607" x2="248.129" y2="212.945" gradientUnits="userSpaceOnUse">
<stop stop-color="#ED6CCD"/>
<stop offset="1" stop-color="#005184"/>
</linearGradient>
</defs>
</svg>
