<svg width="100" height="100" viewBox="0 0 100 100" fill="none" xmlns="http://www.w3.org/2000/svg">
<mask id="mask0" style="mask-type:alpha" maskUnits="userSpaceOnUse" x="0" y="0" width="100" height="100">
<rect width="100" height="100" fill="#C4C4C4"/>
</mask>
<g mask="url(#mask0)">
<path d="M49.9936 94.344C40.0096 94.344 32.2336 91.624 26.6656 86.184C21.1616 80.744 18.4096 73.032 18.4096 63.048V25.8H37.4176V62.472C37.4176 73.224 41.6736 78.6 50.1856 78.6C58.6336 78.6 62.8576 73.224 62.8576 62.472V25.8H81.5776V63.048C81.5776 73.032 78.7936 80.744 73.2256 86.184C67.7216 91.624 59.9776 94.344 49.9936 94.344ZM40.0096 20.424C37.8336 20.424 36.0096 19.752 34.5376 18.408C33.1296 17 32.4256 15.176 32.4256 12.936C32.4256 10.696 33.1296 8.872 34.5376 7.464C36.0096 6.056 37.8336 5.352 40.0096 5.352C42.1856 5.352 43.9776 6.056 45.3856 7.464C46.8576 8.872 47.5936 10.696 47.5936 12.936C47.5936 15.176 46.8576 17 45.3856 18.408C43.9776 19.752 42.1856 20.424 40.0096 20.424ZM60.3616 20.424C58.1856 20.424 56.3616 19.752 54.8896 18.408C53.4816 17 52.7776 15.176 52.7776 12.936C52.7776 10.696 53.4816 8.872 54.8896 7.464C56.3616 6.056 58.1856 5.352 60.3616 5.352C62.5376 5.352 64.3296 6.056 65.7376 7.464C67.2096 8.872 67.9456 10.696 67.9456 12.936C67.9456 15.176 67.2096 17 65.7376 18.408C64.3296 19.752 62.5376 20.424 60.3616 20.424Z" fill="#64FFDA"/>
</g>
</svg>
