<svg width="104" height="176" viewBox="0 0 104 176" fill="none" xmlns="http://www.w3.org/2000/svg">
<path d="M56.592 142.016C41.616 142.016 29.952 137.936 21.6 129.776C13.344 121.616 9.216 110.048 9.216 95.072V39.2H37.728V94.208C37.728 110.336 44.112 118.4 56.88 118.4C69.552 118.4 75.888 110.336 75.888 94.208V39.2H103.968V95.072C103.968 110.048 99.792 121.616 91.44 129.776C83.184 137.936 71.568 142.016 56.592 142.016ZM41.616 31.136C38.352 31.136 35.616 30.128 33.408 28.112C31.296 26 30.24 23.264 30.24 19.904C30.24 16.544 31.296 13.808 33.408 11.696C35.616 9.58399 38.352 8.52799 41.616 8.52799C44.88 8.52799 47.568 9.58399 49.68 11.696C51.888 13.808 52.992 16.544 52.992 19.904C52.992 23.264 51.888 26 49.68 28.112C47.568 30.128 44.88 31.136 41.616 31.136ZM72.144 31.136C68.88 31.136 66.144 30.128 63.936 28.112C61.824 26 60.768 23.264 60.768 19.904C60.768 16.544 61.824 13.808 63.936 11.696C66.144 9.58399 68.88 8.52799 72.144 8.52799C75.408 8.52799 78.096 9.58399 80.208 11.696C82.416 13.808 83.52 16.544 83.52 19.904C83.52 23.264 82.416 26 80.208 28.112C78.096 30.128 75.408 31.136 72.144 31.136Z" fill="#64FFDA"/>
</svg>
