<svg width="109" height="72" viewBox="0 0 109 72" fill="none" xmlns="http://www.w3.org/2000/svg">
<g id="PlanetD">
<path id="Vector" d="M55.3594 61.2744C69.3101 61.2744 80.6194 49.9651 80.6194 36.0144C80.6194 22.0637 69.3101 10.7544 55.3594 10.7544C41.4087 10.7544 30.0994 22.0637 30.0994 36.0144C30.0994 49.9651 41.4087 61.2744 55.3594 61.2744Z" fill="url(#paint0_linear)"/>
<g id="planet-d-content">
<path id="Vector_2" opacity="0.58" d="M71.7494 30.9944C66.7394 31.8344 61.8294 29.4444 56.8594 28.4144C53.1394 27.6444 49.2694 27.6244 45.5494 28.3744C42.1294 29.0644 38.7794 30.4244 36.1794 32.7544C33.5794 35.0744 31.7894 38.4344 31.8194 41.9244C31.8494 45.4144 33.8894 48.9244 37.1094 50.2644C35.0694 46.6744 36.2794 42.0144 38.6094 38.5944C41.1694 34.8344 45.1194 31.9144 49.6094 31.1944C56.4094 30.1044 62.8494 34.0044 69.2794 36.4544C71.5094 37.3044 73.8594 38.0044 76.2394 37.9044C77.0694 37.8744 77.9494 37.7144 78.5794 37.1744C79.6694 36.2344 79.6294 34.5644 79.4994 33.1344C79.3994 32.0644 78.6094 28.5544 78.2094 27.8344C76.7394 25.1744 76.3194 27.8544 75.5394 28.9344C74.6094 30.2544 73.3094 30.7344 71.7494 30.9944Z" fill="black"/>
<path id="Vector_3" opacity="0.58" d="M70.3694 43.8444C67.8394 43.5244 65.3194 43.1244 62.8194 42.6444C59.2894 41.9744 55.7094 41.1544 52.1494 41.5644C46.9994 42.1544 42.2794 45.4744 40.1794 49.9944C39.7394 50.9344 39.4094 52.0044 39.7094 52.9944C39.9294 53.6944 40.4394 54.2744 40.9894 54.7944C42.8394 56.5344 45.1994 57.7644 47.7394 58.3044C47.1994 57.4244 46.6594 56.5444 46.1194 55.6644C45.8194 55.1844 45.5194 54.6844 45.4294 54.1344C45.2594 53.1544 45.7494 52.1844 46.3594 51.3744C48.2394 48.8944 51.3194 47.3744 54.4994 46.9144C57.6794 46.4544 60.9494 46.9744 63.9894 47.9544C66.2694 48.6944 68.5094 49.6944 70.9194 49.7644C73.3194 49.8344 75.9994 48.6044 76.5394 46.3744C77.4094 42.7744 72.4394 44.1044 70.3694 43.8444Z" fill="black"/>
<path id="Vector_4" opacity="0.58" d="M57.6094 53.1444C56.5694 53.4544 55.5294 53.8244 54.6794 54.4944C53.8294 55.1644 53.1894 56.1844 53.2294 57.2644C53.2494 57.6744 53.3594 58.0944 53.6094 58.4144C54.1494 59.1244 55.1694 59.2544 56.0494 59.1744C56.1494 59.1644 56.2494 59.1544 56.3294 59.1044C56.5194 59.0044 56.5794 58.7644 56.6494 58.5644C57.1494 57.0244 58.9094 56.2144 60.5294 56.1544C62.5594 56.0944 64.7194 56.8944 66.5394 55.9944C69.1494 54.7044 67.3594 52.8644 65.4594 52.4844C62.8494 51.9744 60.1294 52.4044 57.6094 53.1444Z" fill="black"/>
<path id="Vector_5" opacity="0.58" d="M68.6094 19.3444C68.0194 19.8944 67.1694 20.0544 66.3594 20.1444C61.0494 20.7344 55.7294 19.5044 50.3894 19.1844C45.0594 18.8644 39.2094 19.6644 35.4494 23.4544C38.0594 18.9644 42.4994 15.5644 47.5194 14.2344C46.7494 14.4744 46.1794 15.2344 46.1694 16.0444C50.1694 16.5944 54.1994 16.9544 58.2394 17.1344C60.3094 17.2244 62.6594 17.1644 64.0794 15.6544C64.6494 15.0544 65.1694 14.1844 65.9894 14.2344C66.2994 14.2444 66.5694 14.3844 66.8094 14.5444C67.9994 15.3344 70.0294 18.0144 68.6094 19.3444Z" fill="black"/>
<path id="Vector_6" opacity="0.58" d="M59.7794 13.5844C59.8794 13.6444 59.9994 13.7344 59.9694 13.8444C59.9594 13.8944 59.9194 13.9344 59.8694 13.9744C59.4294 14.3444 58.7894 14.3344 58.2294 14.2444C57.6794 14.1644 55.0494 13.7244 56.3994 13.0044C57.5094 12.4244 58.8194 13.0244 59.7794 13.5844Z" fill="black"/>
<path id="Vector_7" opacity="0.58" d="M75.2794 32.4044C74.3594 32.8044 73.3494 32.9444 72.3494 33.0744C71.9994 33.1144 71.6594 33.1644 71.3094 33.2144C70.9694 33.2544 70.6294 33.3044 70.2894 33.3044C69.2294 33.3044 68.2294 32.8744 67.2094 32.5944C66.0194 32.2544 64.7794 32.1044 63.5494 31.9544C66.7294 33.3744 70.0594 34.5444 73.5094 35.0244C73.7094 35.0544 73.9294 35.0744 74.1094 34.9844C74.2594 34.9044 74.3694 34.7644 74.5094 34.6744C74.6894 34.5544 74.9094 34.5144 75.1194 34.5144C75.8194 34.5044 76.5894 34.8144 77.1794 34.4244C77.8794 33.9644 78.1294 32.2744 77.6194 31.6144C76.9394 30.7444 75.9694 32.0944 75.2794 32.4044Z" fill="black"/>
<path id="Vector_8" opacity="0.58" d="M41.6294 50.5144C41.7494 49.9244 41.9294 49.3044 42.3894 48.9044C42.8494 48.4944 43.5194 48.3844 44.1394 48.4244C44.2594 48.4344 44.3894 48.4444 44.4994 48.3744C44.5894 48.3144 44.6394 48.2044 44.6894 48.1044C45.3994 46.6544 46.9094 45.8044 48.3494 45.0544C49.7694 44.3144 51.2194 43.5744 52.8094 43.3544C55.1794 43.0244 57.5294 43.9044 59.7694 44.7644C58.5594 44.3244 57.2394 44.3644 55.9594 44.4144C54.8994 44.4644 53.8194 44.5244 52.8394 44.9344C52.0294 45.2744 51.3294 45.8344 50.4794 46.0644C49.9594 46.2044 49.3894 46.2244 48.9494 46.5444C48.4994 46.8644 48.3094 47.4244 48.0194 47.8944C47.3494 48.9644 46.1494 49.5644 45.0794 50.2344C44.0094 50.9044 42.9294 51.8544 42.8294 53.1144C42.8094 53.3444 42.8194 53.5844 42.7094 53.7844C42.5094 54.1244 41.9794 54.1544 41.6594 53.9144C40.8194 53.2844 41.4594 51.3444 41.6294 50.5144Z" fill="black"/>
<path id="Vector_9" opacity="0.58" d="M33.4794 39.4844C33.7794 39.0944 34.1594 38.7644 34.4194 38.3444C34.6394 37.9944 34.7594 37.6044 34.9394 37.2344C35.4994 36.0744 36.5194 35.2244 37.5194 34.4144C39.0194 33.1944 40.5594 31.9544 42.3994 31.3544C39.2894 33.4644 36.8294 36.5244 35.4294 40.0044C34.6094 42.0444 34.1394 44.2044 33.6894 46.3544C33.7294 46.1444 33.0094 45.0744 32.9494 44.7244C32.8494 44.1544 33.0494 43.6644 33.0194 43.1144C32.9294 41.7544 32.5394 40.7144 33.4794 39.4844Z" fill="black"/>
<path id="Vector_10" opacity="0.58" d="M64.3394 17.1444C63.8994 17.1644 63.4494 17.0844 63.0394 17.2344C62.8294 17.3044 62.6494 17.4344 62.4594 17.5444C61.7994 17.9044 61.0394 18.0244 60.2894 18.1244C57.7294 18.4444 55.1294 18.4744 52.5594 18.2344C56.7994 19.1844 61.2294 19.2444 65.4894 18.4344C65.8694 18.3644 66.2494 18.2744 66.5694 18.0644C67.2994 17.5744 67.1794 16.3844 66.2494 16.2244C65.4294 16.0644 65.2094 17.1044 64.3394 17.1444Z" fill="black"/>
<path id="Vector_11" opacity="0.58" d="M37.0794 23.9344C36.0994 24.5144 35.0594 25.2444 34.8094 26.3544C34.7594 26.5644 34.7594 26.8144 34.8994 26.9744C35.1694 27.2644 35.6494 27.0244 35.9594 26.7844C35.8494 27.0244 36.0994 27.2644 36.3294 27.3844C37.5594 28.0044 39.1794 27.7144 40.1094 26.6944C40.3394 26.4444 40.5394 26.1044 40.4794 25.7644C40.4094 25.4244 39.9594 25.1844 39.7094 25.4144C39.8394 25.3644 40.0094 25.4444 40.0594 25.5744C39.4894 26.0644 38.6694 26.2544 37.9394 26.0644C37.8194 26.0344 37.6994 25.9944 37.6094 25.9144C37.3894 25.7144 37.3994 25.3544 37.5194 25.0844C37.7694 24.4944 38.3694 24.1344 38.9494 23.8444C40.8094 22.9244 42.8394 22.3444 44.9094 22.1344C44.7394 22.1544 44.2894 21.8044 44.0694 21.7544C43.7394 21.6844 43.3694 21.6944 43.0294 21.7344C42.5194 21.7944 42.0194 21.9544 41.5194 22.0744C39.8994 22.4344 38.4894 23.0944 37.0794 23.9344Z" fill="black"/>
<path id="Vector_12" opacity="0.58" d="M49.7194 39.9244C50.3194 39.8644 50.9094 39.9644 51.5094 40.0344C53.0094 40.1944 54.5294 40.1144 56.0394 40.0344C56.8194 39.9944 57.5894 39.9544 58.3694 39.9144C59.4194 39.8544 60.4794 39.8044 61.5194 39.6144C61.7594 39.5744 62.0094 39.5144 62.2094 39.3744C62.7694 38.9844 62.7294 38.1444 62.4894 37.5144C61.6794 35.3844 59.0994 34.1044 56.9094 34.7644C56.5794 33.9844 55.6194 33.6744 54.7794 33.7144C53.7394 33.7644 52.7194 34.2544 52.0294 35.0344C51.5094 35.6144 51.1794 36.5044 51.5994 37.1544C51.9694 37.7344 52.7494 37.8744 53.4394 37.9144C54.1894 37.9644 54.9294 37.9744 55.6794 37.9344C56.0494 37.9144 56.4994 37.8244 56.5894 37.4644C55.9794 37.7444 55.2194 37.6844 54.6694 37.3044C54.4794 37.1744 54.2894 36.9844 54.2894 36.7444C54.2794 36.4244 54.6094 36.1944 54.9194 36.1544C55.2294 36.1144 55.5494 36.2044 55.8594 36.2344C56.4394 36.2944 57.0194 36.1444 57.5994 36.1944C58.1794 36.2444 58.8094 36.5844 58.8894 37.1544C58.9594 37.6744 58.5294 38.1544 58.0394 38.3444C57.5494 38.5344 57.0094 38.5144 56.4794 38.5544C54.6894 38.6744 53.0194 39.4144 51.2694 39.7844C50.1394 40.0244 48.9794 40.1044 47.8694 40.4044C46.7594 40.7144 45.6594 41.2844 45.0494 42.2644C45.4694 41.6044 46.8094 41.0644 47.4994 40.7844C48.1994 40.5044 48.9494 40.0044 49.7194 39.9244Z" fill="black"/>
<path id="Vector_13" opacity="0.58" d="M72.5294 26.3044C72.7094 26.6944 72.5194 27.1744 72.1994 27.4544C71.8794 27.7344 71.4494 27.8644 71.0394 27.9944C70.2794 28.2144 69.5094 28.4344 68.7294 28.5544C68.3994 28.6044 68.0594 28.6344 67.7294 28.5744C67.4194 28.5144 67.1294 28.3544 66.8294 28.2644C66.0494 28.0344 65.1394 28.2044 64.4694 27.7444C63.8494 27.3144 63.6594 26.4944 63.6094 25.7444C63.5694 25.2544 63.6094 24.6844 64.0094 24.3944C64.1094 24.3244 64.2194 24.2744 64.2994 24.1944C64.3994 24.0844 64.4294 23.9344 64.4794 23.7944C64.7894 22.9344 65.7894 22.5144 66.6994 22.5044C66.8394 22.5044 66.9694 22.5044 67.1094 22.4744C67.2794 22.4344 67.4294 22.3244 67.5694 22.2144C68.3194 21.6744 69.2594 21.1844 70.1394 21.4844C70.5194 21.6144 70.8294 21.8744 71.0994 22.1744C71.4794 22.5944 71.7994 23.1044 71.8394 23.6744C71.8894 24.2444 71.6094 24.8544 71.0894 25.0844C70.8994 25.1644 70.6794 25.2144 70.5594 25.3844C70.4994 25.4644 70.4794 25.5644 70.4494 25.6544C70.2394 26.1944 69.5994 26.4344 69.0294 26.5144C68.5594 26.5744 68.0594 26.5744 67.6494 26.3444C67.2294 26.1144 66.9394 25.6244 67.0694 25.1644C67.1694 24.8144 67.4894 24.5644 67.8094 24.3844C68.0894 24.2344 68.4594 24.1244 68.6894 24.3344C68.6094 24.0844 68.2594 24.0044 68.0494 24.1544C67.8394 24.3044 67.7894 24.6244 67.9094 24.8544C68.0294 25.0844 68.2794 25.2244 68.5294 25.2644C68.7794 25.3044 69.0594 25.2444 69.2294 25.0544C69.2794 24.9944 69.3294 24.9244 69.3894 24.8744C69.4594 24.8044 69.5594 24.7744 69.6494 24.7344C70.1594 24.5044 70.4994 23.8144 70.1594 23.3744C70.0394 23.2244 69.8694 23.1344 69.6894 23.0744C69.1994 22.9044 68.6494 22.9244 68.1794 23.1444C67.6394 23.3944 67.1994 23.8744 66.6194 24.0044C66.4794 24.0344 66.3294 24.0444 66.1894 24.0844C65.9594 24.1544 65.7594 24.3044 65.5894 24.4744C65.2594 24.8044 65.0094 25.2144 64.8694 25.6544C64.8194 25.8244 64.7794 26.0044 64.8294 26.1744C64.9394 26.5444 65.3994 26.6644 65.7794 26.7344C66.4694 26.8744 67.1494 27.0744 67.8094 27.3344C68.1394 27.4644 68.4594 27.6144 68.8094 27.6744C69.4694 27.7944 70.1894 27.5944 70.6794 27.1444C70.7994 27.0344 70.9094 26.9044 71.0594 26.8344C71.3394 26.6944 71.7194 26.7444 71.9194 26.5044C72.0194 26.3744 72.0494 26.1944 72.1594 26.0844C72.2394 26.0044 72.3394 25.9744 72.4394 25.9344C73.0894 25.6544 73.5294 24.9444 73.4894 24.2344C73.4794 24.0044 73.4194 23.7744 73.4394 23.5444C73.4594 23.2544 73.6194 22.9744 73.8594 22.8044C74.0794 22.6444 74.3794 22.5744 74.6394 22.6644C74.8994 22.7544 75.0994 23.0144 75.0794 23.2944C75.4994 23.5044 75.7594 24.0144 75.6794 24.4844C75.5994 24.9544 75.1894 25.3444 74.7194 25.4044C75.0694 25.3544 74.8694 24.3244 74.5894 24.2044C74.2294 24.0444 73.9594 24.3244 73.8894 24.6444C73.8094 24.9944 73.9394 25.3144 73.7494 25.6544C73.4694 26.0544 72.9694 26.2044 72.5294 26.3044Z" fill="black"/>
<path id="Vector_14" opacity="0.58" d="M51.4594 49.9844C50.9394 50.2544 50.4094 50.5344 50.0194 50.9744C49.6294 51.4044 49.3994 52.0344 49.5794 52.5844C49.6194 52.6944 49.6694 52.8044 49.6794 52.9244C49.6894 53.0644 49.6294 53.1944 49.6194 53.3244C49.5894 53.6444 49.7994 53.9544 50.0694 54.1344C50.3394 54.3144 50.6694 54.3744 50.9894 54.4344C51.4394 54.5144 51.9294 54.5744 52.3094 54.3144C52.5894 54.1244 52.7494 53.8144 52.9894 53.5844C53.4794 53.1244 54.2394 53.1044 54.8294 52.7844C55.2094 52.5744 55.5194 52.2244 55.6494 51.8144C55.7794 51.4044 55.7094 50.9244 55.4494 50.5744C55.9494 50.1444 56.4494 49.7144 56.9594 49.2844C57.2594 49.0344 57.5594 48.7744 57.9194 48.6244C58.2794 48.4744 58.7094 48.4544 59.0394 48.6544C59.5994 48.1244 60.4694 47.8444 61.1594 48.1944C61.5494 48.3944 61.8294 48.7644 62.0894 49.1244C62.2394 49.3244 62.3994 49.5544 62.3794 49.8144C62.3594 50.1744 62.0194 50.4144 61.6794 50.5444C61.3794 50.6644 61.0394 50.7344 60.7294 50.6244C60.4194 50.5144 60.1794 50.1844 60.2694 49.8744C60.5494 49.8444 60.8394 49.8844 61.0994 49.9844C61.0894 49.7744 60.9094 49.6144 60.7094 49.5644C60.5094 49.5144 60.2994 49.5444 60.0994 49.5744C59.8894 49.6144 59.6694 49.6644 59.4994 49.7844C59.1594 50.0344 59.1194 50.5744 59.3794 50.9044C59.6394 51.2344 60.1494 51.3144 60.5194 51.1144C60.8094 51.5544 61.3794 51.7744 61.9094 51.7144C62.4394 51.6544 62.9094 51.3344 63.2294 50.9044C63.4894 50.5544 63.6494 50.1144 63.5294 49.6944C63.4094 49.2844 62.9394 48.9644 62.5394 49.1144C62.7194 48.9344 62.6894 48.6244 62.5394 48.4144C62.3894 48.2044 62.1594 48.0844 61.9294 47.9644C61.5194 47.7544 61.0994 47.5544 60.6394 47.4844C59.7894 47.3544 58.9494 47.6844 58.1194 47.9044C57.0294 48.1944 55.8494 48.3044 54.9194 48.9344C54.2194 49.4144 53.7194 50.1844 53.5594 51.0244C53.6394 51.0044 53.7194 50.9844 53.8094 50.9644C52.8194 51.5544 51.8594 52.1444 50.8394 52.6844C50.8694 52.6444 50.8794 52.6044 50.8794 52.5544C50.7694 52.5344 50.6694 52.6244 50.5594 52.6544C50.3494 52.6944 50.1794 52.4944 50.0894 52.3044C49.9494 52.0244 49.8794 51.6844 50.0094 51.3944C50.2994 50.8444 51.3094 50.5944 51.4594 49.9844Z" fill="black"/>
<path id="ring" d="M12.6594 60.8944C19.7494 58.5544 26.6094 55.5144 33.0994 51.8244C40.3394 47.7144 47.0994 42.8144 53.8294 37.9144C64.8794 29.8844 75.9694 21.7844 85.5894 12.0844C80.9794 13.4044 76.5194 15.2544 72.3294 17.5944C81.7794 11.0344 91.9094 5.44436 102.499 0.944364C104.269 0.194364 106.759 -0.305636 107.729 1.35436C108.259 2.27436 107.999 3.43436 107.579 4.41436C105.809 8.58436 101.839 11.3144 98.0694 13.8144C79.6894 25.9944 61.3094 38.1744 42.9394 50.3544C39.1294 52.8844 35.3194 55.4044 31.4094 57.7844C25.5594 61.3544 19.5094 64.5944 13.3094 67.4844C9.17938 69.4044 4.90938 71.1944 0.389384 71.7744C-0.170616 69.0044 2.13938 66.5644 4.23938 64.6844C8.00938 61.3244 11.7794 57.9544 15.5494 54.5944C17.4694 52.8744 19.3994 51.1644 21.3194 49.4444C22.4894 48.4044 30.2894 43.7144 30.2894 43.7144C30.2894 43.7144 26.3294 46.5944 25.7094 47.0744C24.0594 48.3544 14.7494 57.1144 12.6594 60.8944Z" fill="url(#paint1_linear)"/>
</g>
</g>
<defs>
<linearGradient id="paint0_linear" x1="23.5545" y1="33.5446" x2="109.555" y2="40.2113" gradientUnits="userSpaceOnUse">
<stop stop-color="#FFAB67"/>
<stop offset="0.0554" stop-color="#FF9F6C"/>
<stop offset="0.3301" stop-color="#FF6784"/>
<stop offset="0.4627" stop-color="#FF518D"/>
<stop offset="1" stop-color="#5E309D"/>
</linearGradient>
<linearGradient id="paint1_linear" x1="0.299384" y1="36.0126" x2="108.023" y2="36.0126" gradientUnits="userSpaceOnUse">
<stop stop-color="#00EFA9"/>
<stop offset="1" stop-color="#3F56F0"/>
</linearGradient>
</defs>
</svg>
